<?xml version="1.0" encoding="utf-8"?>
<!-- Generator: Adobe Illustrator 23.0.5, SVG Export Plug-In . SVG Version: 6.00 Build 0)  -->
<svg version="1.1" id="Capa_1" xmlns="http://www.w3.org/2000/svg" xmlns:xlink="http://www.w3.org/1999/xlink" x="0px" y="0px"
	 viewBox="0 0 595.28 841.89" style="enable-background:new 0 0 595.28 841.89;" xml:space="preserve">
<style type="text/css">
	.st0{fill:#FFFFFF;}
</style>
<path class="st0" d="M297.46,721.82C139.87,723.21,5.83,593.09,8.08,428.12c2.12-155.04,128.65-287.33,294.26-285.17
	c155.63,2.03,287.73,129.72,284.83,295.54C584.44,594.27,456.38,722.96,297.46,721.82z M261.15,448.84c0,2.79,0,4.91,0,7.02
	c0,46.81,0,93.63,0,140.44c0,6.53,0.01,6.53,6.67,6.54c16.66,0,33.32-0.19,49.98,0.11c5.05,0.09,6.51-1.34,6.49-6.44
	c-0.19-46.98-0.11-93.96-0.11-140.94c0-2.09,0-4.18,0-6.73c2.44,0,4.07,0,5.7,0c13.66,0,27.32,0.01,40.98-0.01
	c2.3,0,4.9,0.41,5.28-3.03c0.33-2.97,0.68-5.93,1.06-8.89c1.76-13.98,3.42-27.96,5.33-41.92c0.83-6.07,0.97-6.17-5.22-6.17
	c-15.99-0.01-31.99-0.17-47.98,0.1c-4.7,0.08-6.46-1.08-6.23-6.05c0.61-13.45,0.82-26.92,1.06-40.38
	c0.2-11.44,5.69-19.92,16.91-21.37c13.59-1.76,27.45-1.58,41.2-1.73c3-0.03,3.92-0.49,3.92-3.26c-0.02-15.16,0.07-30.32-0.15-45.48
	c-0.02-1.31-1.88-3.43-3.2-3.72c-3.69-0.82-7.55-1.16-11.35-1.18c-15.92-0.1-32.05-1.61-47.73,0.34
	c-34.98,4.33-57.71,29.73-60.44,66.19c-1.25,16.72-0.82,33.57-1.15,50.37c-0.04,1.92-0.01,3.84-0.01,6.18c-2.64,0-4.45,0-6.26,0
	c-13.49,0-26.99,0.24-40.48-0.12c-5.22-0.14-6.46,1.62-6.37,6.57c0.29,15.82,0.28,31.65,0,47.48c-0.08,4.84,1.39,6.29,6.21,6.2
	C230.23,448.66,245.22,448.84,261.15,448.84z"/>
</svg>
