<?xml version="1.0" encoding="utf-8"?>
<!-- Generator: Adobe Illustrator 23.0.5, SVG Export Plug-In . SVG Version: 6.00 Build 0)  -->
<svg version="1.1" id="Capa_1" xmlns="http://www.w3.org/2000/svg" xmlns:xlink="http://www.w3.org/1999/xlink" x="0px" y="0px"
	 viewBox="0 0 16 24" style="enable-background:new 0 0 16 24;" xml:space="preserve">
<style type="text/css">
	.st0{display:none;}
	.st1{display:inline;}
	.st2{fill:#FFFFFF;}
	.st3{fill:#0C3C60;}
</style>
<g class="st0">
	<path class="st1" d="M6,9.3l5.3,2.7L6,14.7V9.3z M20,0v24H-4V0H20z M16,12c0-4.1-0.3-5.7-2.9-5.9C10.7,6,5.3,6,2.9,6.1
		C0.3,6.3,0,7.9,0,12s0.3,5.7,2.9,5.9c2.4,0.2,7.8,0.2,10.2,0C15.7,17.7,16,16.1,16,12z"/>
</g>
<g>
	<path class="st2" d="M8,6C5.8,6,3.8,6,2.4,6.2C1.2,6.4,0.5,7.1,0.3,8.3c-0.3,2.2-0.4,4.5-0.1,7.1c0.2,1.5,1,2.4,2.5,2.5
		c3.8,0.2,7.4,0.2,10.7,0c1.3-0.2,2.1-1,2.3-2.4c0.3-2.4,0.3-4.7,0-6.9c-0.2-1.5-1.1-2.3-2.5-2.4C11.5,6,9.8,6,8,6z"/>
	<polygon class="st3" points="6,9.3 6,14.7 11.3,12 	"/>
</g>
</svg>
